<svg version="1" xmlns="http://www.w3.org/2000/svg" width="400" height="400" viewBox="0 0 300.000000 300.000000"><path d="M33.7 12.1C27.6 16.7 28 7.8 28 150.3v130.4l3.4 3.9 3.4 3.9 112.2.3 112.2.2 3.9-3.9 3.9-3.9V87l-2.7-6.7c-2.5-6.5-4-8.2-30.7-35.1-24.2-24.4-29-28.7-34.6-31.5l-6.5-3.2-78-.2c-77.7-.3-78-.2-80.8 1.8zm134.1 53.3l.2 34.9 2.6 3.4c4.6 6.1 6 6.3 43 6.3H247v159H48V30l59.8.2 59.7.3.3 34.9zm50.5-6.5c19.5 19.5 26.8 27.3 26.5 28.7-.3 1.8-1.7 1.9-26.3 2.2-14.3.1-27 0-28.2-.3L188 89V60.5c0-26.1.1-28.5 1.7-28.5.9 0 13.8 12.1 28.6 26.9z"/><path d="M168.5 125.6c-4.4 1.3-8.4 2.6-9 2.7-.5.2-3.7 1.2-7 2.2-7.3 2.2-7.6 2.3-9.5 2.8-.8.2-2.2.7-3 1-.8.3-5.1 1.6-9.5 3-20.4 6.1-23.4 7.3-24.6 9.2-1.1 1.6-1.4 10.2-1.5 40.3-.1 21-.3 38.5-.6 38.7-.2.3-2 0-3.8-.5-3-.9-15.3-1.6-17.2-1-.5.1-1.1.3-1.5.5-.5.1-2.1.5-3.8 1-4.7 1.3-10.3 5.2-11.8 8.2-5.1 10.2 6.3 19.7 23.6 19.7 7.1 0 18.7-2.8 18.7-4.5 0-.5.6-.9 1.3-.9.6 0 2-1.2 3.1-2.6 1.7-2.4 1.8-4.9 1.8-32.4l.1-29.8 7.6-2.3c4.2-1.3 8.1-2.4 8.6-2.4.6 0 1.5-.3 2-.6.6-.4 4.4-1.6 8.5-2.9 8.4-2.5 16.4-5 25.9-8 3.5-1.2 6.6-1.8 6.9-1.5.9.8.9 39.5.1 40-.3.3-2.1 0-4-.6-6.9-2.1-20-1-26.9 2.4-8 3.9-10.5 12.8-5.2 18.8 4.1 4.5 14.4 7.8 23.4 7.4 10.5-.5 20.8-5.1 22.5-9.9.4-1.2.7-23.1.8-48.9 0-50.7.1-49.9-5.5-51.1-1.4-.3-6.1.6-10.5 2z"/></svg>